<?xml version="1.0" encoding="utf-8"?><svg xmlns="http://www.w3.org/2000/svg" width="144.996" height="53.875" viewBox="0 0 144.996 53.875">
  <g id="gvec-logo-white" transform="translate(-0.004 0.002)">
    <path id="Path_1" data-name="Path 1" d="M55.12,40.865a5.491,5.491,0,0,1,2.576.591,4.224,4.224,0,0,1,1.753,1.668,4.952,4.952,0,0,1,0,4.847,4.224,4.224,0,0,1-1.785,1.637,5.892,5.892,0,0,1-2.65.57h-3.78V40.865Zm-.18,7.909a3.168,3.168,0,0,0,2.386-.9,3.548,3.548,0,0,0,0-4.731,3.358,3.358,0,0,0-2.439-.866H53.029v6.494Z" fill="#fff"/>
    <path id="Path_2" data-name="Path 2" d="M63.778,43.832a2.767,2.767,0,0,1,2.112.887,3.485,3.485,0,0,1,.8,2.429V47.4H62.35a1.9,1.9,0,0,0,.623,1.309,2.112,2.112,0,0,0,1.426.454,3.168,3.168,0,0,0,1.13-.211,4.741,4.741,0,0,0,1.13-.644v1.225a4.509,4.509,0,0,1-2.64.771,3.358,3.358,0,0,1-2.408-.887,3.5,3.5,0,0,1-.063-4.678,2.946,2.946,0,0,1,2.228-.908ZM65.2,46.4a1.753,1.753,0,0,0-.412-1.056,1.172,1.172,0,0,0-.95-.391,1.373,1.373,0,0,0-.993.37,1.89,1.89,0,0,0-.475,1.056Z" fill="#fff"/>
    <path id="Path_3" data-name="Path 3" d="M69.163,40.865v9.313H67.537V40.865Z" fill="#fff"/>
    <path id="Path_4" data-name="Path 4" d="M71.181,41.076a.876.876,0,0,1,.655.275.887.887,0,0,1,.264.655.9.9,0,0,1-.264.644.876.876,0,0,1-.655.285.845.845,0,0,1-.644-.285.919.919,0,0,1,.644-1.573Zm.813,2.883v6.219H70.368V43.959Z" fill="#fff"/>
    <path id="Path_5" data-name="Path 5" d="M74.377,43.958l1.489,3.6,1.447-3.6h1.742l-2.8,6.336h-.788l-2.84-6.336Z" fill="#fff"/>
    <path id="Path_6" data-name="Path 6" d="M81.866,43.832a2.777,2.777,0,0,1,2.112.887,3.485,3.485,0,0,1,.792,2.429V47.4H80.388a1.943,1.943,0,0,0,.665,1.309,2.112,2.112,0,0,0,1.447.422,3.094,3.094,0,0,0,1.119-.211,4.371,4.371,0,0,0,1.119-.612v1.225a4.477,4.477,0,0,1-2.64.771,3.326,3.326,0,0,1-2.4-.887,3.513,3.513,0,0,1-.074-4.678,2.978,2.978,0,0,1,2.242-.908ZM83.292,46.4a1.753,1.753,0,0,0-.412-1.056,1.193,1.193,0,0,0-.95-.391,1.373,1.373,0,0,0-.993.37,1.763,1.763,0,0,0-.475,1.056Z" fill="#fff"/>
    <path id="Path_7" data-name="Path 7" d="M89.11,43.832a1.584,1.584,0,0,1,.644.148,3.306,3.306,0,0,1,.729.5l-.591,1.436a2.112,2.112,0,0,0-1.14-.539,1.214,1.214,0,0,0-.75.285,2.22,2.22,0,0,0-.813,1.679v2.84H85.562V43.959H87.2v1.584a4.5,4.5,0,0,1,.9-1.309,1.489,1.489,0,0,1,1.011-.4Z" fill="#fff"/>
    <path id="Path_8" data-name="Path 8" d="M91.846,41.076a.866.866,0,0,1,.655.275.887.887,0,0,1,.264.655.9.9,0,0,1-.264.644.93.93,0,1,1-1.3-1.33.9.9,0,0,1,.644-.243Zm.813,2.883v6.219H91.033V43.959Z" fill="#fff"/>
    <path id="Path_9" data-name="Path 9" d="M97.124,43.832a2.112,2.112,0,0,1,1.594.655,2.534,2.534,0,0,1,.591,1.732v3.96H97.684V46.387a1.51,1.51,0,0,0-.285-.961.982.982,0,0,0-.792-.348,1.246,1.246,0,0,0-.708.222,3.168,3.168,0,0,0-.729.739v4.139H93.534V43.959h1.637v.866a2.978,2.978,0,0,1,.919-.76,2.291,2.291,0,0,1,1.035-.232Z" fill="#fff"/>
    <path id="Path_10" data-name="Path 10" d="M106.079,43.958V45.12h-1.056a2.112,2.112,0,0,1,.359.581,1.552,1.552,0,0,1,.106.591,2.006,2.006,0,0,1-.56,1.362,2.7,2.7,0,0,1-1.689.7,3.252,3.252,0,0,0-.845.19.317.317,0,0,0-.211.317c0,.127.084.222.253.3a4,4,0,0,0,.824.19,5.28,5.28,0,0,1,2.059.7,1.457,1.457,0,0,1,.665,1.235,1.742,1.742,0,0,1-.8,1.521,4.224,4.224,0,0,1-2.312.528,4.467,4.467,0,0,1-2.27-.5,1.5,1.5,0,0,1-.845-1.341c0-.792.539-1.341,1.626-1.647-.475-.2-.707-.475-.707-.8s.359-.739,1.056-.9a2.249,2.249,0,0,1-1.151-.707,1.8,1.8,0,0,1-.433-1.2,1.985,1.985,0,0,1,.76-1.626A3,3,0,0,1,102.883,44Zm-4.815,7.455c0,.549.549.834,1.658.834a2.4,2.4,0,0,0,1.13-.232.7.7,0,0,0,.4-.6.655.655,0,0,0-.465-.623,3.073,3.073,0,0,0-1.3-.211,2.027,2.027,0,0,0-1.056.232.686.686,0,0,0-.367.6Zm.391-5.206a1.056,1.056,0,0,0,.338.813,1.193,1.193,0,0,0,.834.317,1.119,1.119,0,0,0,.834-.327,1.225,1.225,0,0,0,.317-.855.993.993,0,0,0-.338-.771,1.214,1.214,0,0,0-1.647,0,1.056,1.056,0,0,0-.338.824Z" fill="#fff"/>
    <path id="Path_11" data-name="Path 11" d="M113.85,43.832a2,2,0,0,1,1.953,1.246,3.875,3.875,0,0,1,1.056-.95,2.355,2.355,0,0,1,1.14-.3,2.112,2.112,0,0,1,1.594.644,2.429,2.429,0,0,1,.6,1.721v3.981H118.56v-3.7a1.732,1.732,0,0,0-.275-1.056.95.95,0,0,0-.8-.37,1.858,1.858,0,0,0-1.436.961v4.139H114.42V46.44a1.594,1.594,0,0,0-.3-1.056.95.95,0,0,0-.781-.359,1.257,1.257,0,0,0-.739.232,3.167,3.167,0,0,0-.707.729v4.139H110.26V43.959H111.9v.866a3.389,3.389,0,0,1,.908-.75,2.26,2.26,0,0,1,1.045-.243Z" fill="#fff"/>
    <path id="Path_12" data-name="Path 12" d="M124.294,43.832a3.77,3.77,0,0,1,1.763.412,2.9,2.9,0,0,1,1.225,1.14,3.168,3.168,0,0,1,.422,1.658,3.337,3.337,0,0,1-.412,1.689,2.872,2.872,0,0,1-1.225,1.151,3.727,3.727,0,0,1-1.774.422,3.675,3.675,0,0,1-1.774-.422,2.967,2.967,0,0,1-1.214-1.172,3.337,3.337,0,0,1-.412-1.689,3.168,3.168,0,0,1,.441-1.669,3.009,3.009,0,0,1,1.214-1.14,3.844,3.844,0,0,1,1.742-.38ZM122.6,47a2.323,2.323,0,0,0,.454,1.489,1.521,1.521,0,0,0,1.225.56,1.573,1.573,0,0,0,1.257-.539,2.26,2.26,0,0,0,.454-1.521,2.112,2.112,0,0,0-.46-1.467,1.605,1.605,0,0,0-1.246-.517,1.52,1.52,0,0,0-1.214.549,2.112,2.112,0,0,0-.443,1.489Z" fill="#fff"/>
    <path id="Path_13" data-name="Path 13" d="M132.023,43.832a1.542,1.542,0,0,1,.634.148,3.337,3.337,0,0,1,.739.5l-.581,1.436a2.112,2.112,0,0,0-1.151-.539,1.182,1.182,0,0,0-.739.285,2,2,0,0,0-.591.75,2.112,2.112,0,0,0-.222.929v2.84h-1.637V43.959h1.637v1.584a4.5,4.5,0,0,1,.9-1.309A1.489,1.489,0,0,1,132.023,43.832Z" fill="#fff"/>
    <path id="Path_14" data-name="Path 14" d="M136.353,43.832a2.777,2.777,0,0,1,2.165.887,3.485,3.485,0,0,1,.792,2.429V47.4h-4.393a1.943,1.943,0,0,0,.623,1.278,2.112,2.112,0,0,0,1.436.454,3.094,3.094,0,0,0,1.119-.211,4.372,4.372,0,0,0,1.119-.612v1.225a4.477,4.477,0,0,1-2.64.771,3.326,3.326,0,0,1-2.4-.887,3.513,3.513,0,0,1-.074-4.678,2.978,2.978,0,0,1,2.253-.909Zm1.426,2.566a1.753,1.753,0,0,0-.412-1.056,1.193,1.193,0,0,0-.95-.391,1.373,1.373,0,0,0-.993.37,1.763,1.763,0,0,0-.475,1.056Z" fill="#fff"/>
    <path id="Path_15" data-name="Path 15" d="M140.682,48.256a.972.972,0,0,1,.708.3.961.961,0,0,1,.306.729.982.982,0,0,1-.3.718,1.056,1.056,0,0,1-1.447,0,.982.982,0,0,1-.3-.718,1.056,1.056,0,0,1,1.056-1.056Z" fill="#fff"/>
    <path id="Path_16" data-name="Path 16" d="M61.814.686,54.19,20.2,46.651.686H17.56C4.783.686,1.721,9.228,1.721,13.621c0,6.547,5.4,10.232,9.936,10.929v.158c-2.111.458-6.472,1.458-6.472,5.227,0,2.545,1.932,3.928,4.319,4.625v.148C1.648,36.714,0,40.558,0,43.567c0,4.688,4,10.306,18.933,10.306,11.467,0,18.785-3.7,18.785-11.932A9.693,9.693,0,0,0,34.871,35.1C29.03,29.166,15.48,32.712,15.48,28.647s10.316-.454,16.631-6.769a10.908,10.908,0,0,0,3.231-7.772,11.214,11.214,0,0,0-1.774-5.934h4.583L51.118,36.866h6.23L73.672.686ZM18.8,38.866c5.533,0,8.69,1.383,8.69,3.928s-3.062,4.456-8,4.456c-5.924,0-9.155-1.457-9.155-4.15S13.558,38.866,18.8,38.866ZM18.564,20.2a6.494,6.494,0,0,1-6.474-6.331,6.336,6.336,0,0,1,6.473-6.473A6.124,6.124,0,0,1,24.9,13.475,6.621,6.621,0,0,1,18.563,20.2Z" fill="#fff"/>
    <path id="Path_17" data-name="Path 17" d="M106.555,32.174a25.733,25.733,0,0,1-15.839,4.688c-12.439,0-20.57-7.233-20.57-18.32C70.146,7.7,77.918,0,88.846,0c10.316,0,18.859,7.307,18.32,20.242H81.687c.391,6.336,4.7,10.01,11.7,10.01,4.467,0,7.93-1.309,13.167-5.09ZM97.284,14.392c-.465-4.847-3.39-7.772-7.7-7.772s-7.233,2.84-7.7,7.772Z" fill="#fff"/>
    <path id="Path_18" data-name="Path 18" d="M141.632,34.476a34.392,34.392,0,0,1-12.017,2.386c-12.46,0-20.548-7.233-20.548-18.31C109.067,7.7,117.462,0,129.13,0a36.651,36.651,0,0,1,11.932,2.312v8.31a20.5,20.5,0,0,0-9.092-2.386c-6.695,0-11,4-11,10.232s4.224,10.475,10.623,10.475c2.693,0,5.079-.623,10.01-2.471Z" fill="#fff"/>
    <path id="Path_19" data-name="Path 19" d="M143.744,2.46a1.288,1.288,0,1,1-1.32,1.278,1.267,1.267,0,0,1,1.32-1.278m0,2.291a1.056,1.056,0,1,0-.971-1.056.971.971,0,0,0,.971,1.056m-.507-1.732h.507c.359,0,.56.116.56.422a.359.359,0,0,1-.38.391l.391.623h-.3l-.359-.612h-.169V4.46H143.2Zm.285.6h.222c.158,0,.275,0,.275-.2s-.158-.18-.3-.18h-.232Z" fill="#fff"/>
  </g>
</svg>
