<?xml version="1.0" encoding="utf-8"?><svg xmlns="http://www.w3.org/2000/svg" width="138.238" height="51.361" viewBox="0 0 138.238 51.361">
  <g id="gvec-logo" transform="translate(0 0.001)">
    <path id="Path_1" data-name="Path 1" d="M52.549,38.959a5.235,5.235,0,0,1,2.456.564,4.027,4.027,0,0,1,1.671,1.591,4.721,4.721,0,0,1,0,4.621,4.027,4.027,0,0,1-1.7,1.56,5.618,5.618,0,0,1-2.527.544h-3.6v-8.88Zm-.171,7.54a3.02,3.02,0,0,0,2.275-.856,3.382,3.382,0,0,0,0-4.51,3.2,3.2,0,0,0-2.325-.825H50.554V46.5Z" fill="#231f20"/>
    <path id="Path_2" data-name="Path 2" d="M60.8,41.788a2.638,2.638,0,0,1,2.013.846,3.322,3.322,0,0,1,.765,2.315v.242H59.445a1.812,1.812,0,0,0,.594,1.248,2.013,2.013,0,0,0,1.359.433,3.02,3.02,0,0,0,1.077-.2,4.52,4.52,0,0,0,1.077-.614v1.168a4.3,4.3,0,0,1-2.517.735,3.2,3.2,0,0,1-2.3-.846,3.334,3.334,0,0,1-.06-4.46,2.809,2.809,0,0,1,2.124-.866Zm1.359,2.446a1.671,1.671,0,0,0-.393-1.007,1.117,1.117,0,0,0-.906-.372,1.309,1.309,0,0,0-.946.352,1.8,1.8,0,0,0-.453,1.007Z" fill="#231f20"/>
    <path id="Path_3" data-name="Path 3" d="M65.938,38.959v8.879h-1.55V38.959Z" fill="#231f20"/>
    <path id="Path_4" data-name="Path 4" d="M67.861,39.16a.836.836,0,0,1,.624.262.846.846,0,0,1,.252.624.856.856,0,0,1-.252.614.836.836,0,0,1-.624.272.805.805,0,0,1-.614-.272.876.876,0,0,1,.614-1.5Zm.775,2.748v5.929h-1.55V41.908Z" fill="#231f20"/>
    <path id="Path_5" data-name="Path 5" d="M70.911,41.908l1.419,3.433,1.38-3.433h1.661L72.7,47.948h-.755l-2.708-6.04Z" fill="#231f20"/>
    <path id="Path_6" data-name="Path 6" d="M78.049,41.788a2.648,2.648,0,0,1,2.013.846,3.322,3.322,0,0,1,.755,2.315v.242H76.639a1.852,1.852,0,0,0,.634,1.248,2.013,2.013,0,0,0,1.379.4,2.949,2.949,0,0,0,1.066-.2,4.168,4.168,0,0,0,1.068-.584v1.168a4.268,4.268,0,0,1-2.517.735,3.171,3.171,0,0,1-2.285-.846,3.349,3.349,0,0,1-.07-4.46,2.839,2.839,0,0,1,2.135-.864Zm1.359,2.446a1.671,1.671,0,0,0-.393-1.007,1.138,1.138,0,0,0-.906-.372,1.309,1.309,0,0,0-.946.352,1.681,1.681,0,0,0-.453,1.007Z" fill="#231f20"/>
    <path id="Path_7" data-name="Path 7" d="M84.954,41.788a1.51,1.51,0,0,1,.614.141,3.152,3.152,0,0,1,.695.473L85.7,43.771a2.013,2.013,0,0,0-1.087-.513,1.158,1.158,0,0,0-.715.272,2.117,2.117,0,0,0-.775,1.6v2.708h-1.55v-5.93h1.56v1.51a4.289,4.289,0,0,1,.856-1.248,1.419,1.419,0,0,1,.966-.382Z" fill="#231f20"/>
    <path id="Path_8" data-name="Path 8" d="M87.562,39.16a.826.826,0,0,1,.624.262.846.846,0,0,1,.252.624.856.856,0,0,1-.252.614.887.887,0,1,1-1.238-1.27.856.856,0,0,1,.614-.232Zm.775,2.748v5.929h-1.55V41.908Z" fill="#231f20"/>
    <path id="Path_9" data-name="Path 9" d="M92.6,41.788a2.013,2.013,0,0,1,1.52.624,2.416,2.416,0,0,1,.564,1.651v3.775h-1.55V44.224a1.439,1.439,0,0,0-.272-.916.936.936,0,0,0-.755-.332,1.188,1.188,0,0,0-.674.211,3.02,3.02,0,0,0-.7.7v3.951h-1.56v-5.93h1.56v.825a2.839,2.839,0,0,1,.876-.725,2.184,2.184,0,0,1,.987-.221Z" fill="#231f20"/>
    <path id="Path_10" data-name="Path 10" d="M101.132,41.908v1.107h-1.007a2.013,2.013,0,0,1,.342.554,1.48,1.48,0,0,1,.1.564,1.913,1.913,0,0,1-.534,1.3,2.577,2.577,0,0,1-1.611.664,3.1,3.1,0,0,0-.8.181.3.3,0,0,0-.2.3c0,.121.081.211.242.282a3.815,3.815,0,0,0,.785.181,5.033,5.033,0,0,1,1.963.664,1.389,1.389,0,0,1,.634,1.178,1.661,1.661,0,0,1-.765,1.45,4.027,4.027,0,0,1-2.2.5,4.258,4.258,0,0,1-2.164-.473,1.429,1.429,0,0,1-.8-1.278c0-.755.513-1.278,1.55-1.57-.453-.191-.674-.453-.674-.765s.342-.7,1.007-.856a2.144,2.144,0,0,1-1.1-.674,1.711,1.711,0,0,1-.413-1.148,1.893,1.893,0,0,1,.725-1.55,2.859,2.859,0,0,1,1.882-.584Zm-4.59,7.107c0,.523.523.8,1.58.8a2.285,2.285,0,0,0,1.077-.221.664.664,0,0,0,.383-.574.624.624,0,0,0-.443-.594,2.93,2.93,0,0,0-1.238-.2,1.933,1.933,0,0,0-1.007.221.654.654,0,0,0-.352.568Zm.372-4.963a1.007,1.007,0,0,0,.322.775,1.138,1.138,0,0,0,.8.3,1.067,1.067,0,0,0,.8-.312,1.168,1.168,0,0,0,.3-.815.946.946,0,0,0-.322-.735,1.158,1.158,0,0,0-1.57,0,1.007,1.007,0,0,0-.322.785Z" fill="#231f20"/>
    <path id="Path_11" data-name="Path 11" d="M108.541,41.788a1.911,1.911,0,0,1,1.862,1.188,3.7,3.7,0,0,1,1.007-.906,2.245,2.245,0,0,1,1.087-.282,2.013,2.013,0,0,1,1.52.614,2.316,2.316,0,0,1,.574,1.641v3.8h-1.563V44.308a1.651,1.651,0,0,0-.262-1.007.906.906,0,0,0-.765-.352,1.772,1.772,0,0,0-1.369.916v3.943h-1.55V44.275a1.52,1.52,0,0,0-.282-1.007.906.906,0,0,0-.745-.342,1.2,1.2,0,0,0-.7.221,3.02,3.02,0,0,0-.674.695v3.946h-1.56v-5.88h1.56v.825a3.231,3.231,0,0,1,.866-.715,2.154,2.154,0,0,1,.994-.23Z" fill="#231f20"/>
    <path id="Path_12" data-name="Path 12" d="M118.5,41.788a3.594,3.594,0,0,1,1.681.393,2.768,2.768,0,0,1,1.168,1.087,3.02,3.02,0,0,1,.4,1.58,3.181,3.181,0,0,1-.393,1.611,2.738,2.738,0,0,1-1.168,1.1,3.554,3.554,0,0,1-1.691.4,3.5,3.5,0,0,1-1.691-.4,2.829,2.829,0,0,1-1.158-1.117,3.181,3.181,0,0,1-.393-1.611,3.02,3.02,0,0,1,.423-1.591,2.869,2.869,0,0,1,1.158-1.087,3.664,3.664,0,0,1,1.661-.362Zm-1.611,3.02a2.215,2.215,0,0,0,.433,1.419,1.45,1.45,0,0,0,1.168.534,1.5,1.5,0,0,0,1.2-.513,2.154,2.154,0,0,0,.433-1.45,2.013,2.013,0,0,0-.443-1.4,1.53,1.53,0,0,0-1.188-.493,1.45,1.45,0,0,0-1.158.523,2.013,2.013,0,0,0-.423,1.419Z" fill="#231f20"/>
    <path id="Path_13" data-name="Path 13" d="M125.865,41.788a1.47,1.47,0,0,1,.6.141,3.181,3.181,0,0,1,.7.473l-.554,1.369a2.013,2.013,0,0,0-1.1-.513,1.128,1.128,0,0,0-.7.272,1.9,1.9,0,0,0-.564.715,2.014,2.014,0,0,0-.211.886v2.707h-1.56v-5.93h1.56v1.51a4.29,4.29,0,0,1,.856-1.248,1.419,1.419,0,0,1,.973-.382Z" fill="#231f20"/>
    <path id="Path_14" data-name="Path 14" d="M129.994,41.788a2.648,2.648,0,0,1,2.064.846,3.322,3.322,0,0,1,.755,2.315v.242h-4.188a1.852,1.852,0,0,0,.594,1.217,2.013,2.013,0,0,0,1.369.433,2.95,2.95,0,0,0,1.067-.2,4.168,4.168,0,0,0,1.067-.584v1.168a4.268,4.268,0,0,1-2.517.735,3.171,3.171,0,0,1-2.285-.846,3.349,3.349,0,0,1-.07-4.46,2.839,2.839,0,0,1,2.144-.866Zm1.359,2.446a1.671,1.671,0,0,0-.393-1.007,1.138,1.138,0,0,0-.906-.372,1.309,1.309,0,0,0-.946.352,1.681,1.681,0,0,0-.453,1.007Z" fill="#231f20"/>
    <path id="Path_15" data-name="Path 15" d="M134.12,46.005a.926.926,0,0,1,.675.282.916.916,0,0,1,.292.695.936.936,0,0,1-.282.685,1.007,1.007,0,0,1-1.379,0,.936.936,0,0,1-.282-.685,1.007,1.007,0,0,1,1.007-1.007Z" fill="#231f20"/>
    <path id="Path_16" data-name="Path 16" d="M58.93.654l-7.268,18.6L44.474.654H16.741C4.56.654,1.641,8.8,1.641,12.986c0,6.241,5.144,9.755,9.473,10.419v.151c-2.013.433-6.171,1.389-6.171,4.983,0,2.426,1.842,3.745,4.117,4.409v.141C1.57,35,0,38.666,0,41.535c0,4.47,3.815,9.825,18.05,9.825,10.933,0,17.909-3.523,17.909-11.376a9.241,9.241,0,0,0-2.718-6.523C27.674,27.8,14.758,31.186,14.758,27.31s9.835-.433,15.855-6.453a10.4,10.4,0,0,0,3.08-7.409A10.691,10.691,0,0,0,32,7.79h4.369L48.73,35.143h5.939L70.237.654Zm-41.012,36.4c5.275,0,8.285,1.319,8.285,3.745s-2.919,4.248-7.631,4.248c-5.648,0-8.728-1.389-8.728-3.956s3.086-4.035,8.075-4.035Zm-.221-17.8a6.191,6.191,0,0,1-6.171-6.04A6.04,6.04,0,0,1,17.7,7.043a5.839,5.839,0,0,1,6.04,5.8,6.312,6.312,0,0,1-6.04,6.413Z" fill="#ed1c24"/>
    <path id="Path_17" data-name="Path 17" d="M101.585,30.674a24.533,24.533,0,0,1-15.1,4.47c-11.859,0-19.61-6.9-19.61-17.466C66.875,7.339,74.284,0,84.7,0c9.835,0,17.979,6.966,17.466,19.3h-24.3c.372,6.04,4.48,9.543,11.154,9.543,4.258,0,7.56-1.248,12.553-4.852ZM92.746,13.721C92.3,9.1,89.515,6.312,85.407,6.312s-6.9,2.708-7.339,7.409Z" fill="#ed1c24"/>
    <path id="Path_18" data-name="Path 18" d="M135.026,32.868a32.788,32.788,0,0,1-11.456,2.275c-11.879,0-19.59-6.9-19.59-17.456C103.98,7.338,111.98,0,123.107,0a34.942,34.942,0,0,1,11.376,2.2V10.13a19.54,19.54,0,0,0-8.663-2.278c-6.382,0-10.49,3.815-10.49,9.755s4.027,9.986,10.127,9.986c2.567,0,4.842-.594,9.543-2.356Z" fill="#ed1c24"/>
    <path id="Path_19" data-name="Path 19" d="M137.04,2.346a1.228,1.228,0,1,1-1.258,1.218,1.208,1.208,0,0,1,1.258-1.218m0,2.185a1.007,1.007,0,1,0-.926-1.007.926.926,0,0,0,.926,1.007m-.483-1.651h.483c.342,0,.534.111.534.4a.342.342,0,0,1-.362.372l.372.594H137.3l-.342-.584H136.8v.584h-.272Zm.272.574h.211c.151,0,.262,0,.262-.191s-.151-.171-.282-.171H136.8Z" fill="#ed1c24"/>
  </g>
</svg>
